<svg id="incomplete--cancel" xmlns="http://www.w3.org/2000/svg" width="20" height="20" viewBox="0 0 20 20">
  <path id="Path_28976" data-name="Path 28976" d="M26.25,20.881,25.369,20l-2.244,2.244L20.881,20,20,20.881l2.244,2.244L20,25.369l.881.881,2.244-2.244,2.244,2.244.881-.881-2.244-2.244Z" transform="translate(-7.5 -7.5)" fill="#da1e27"/>
  <path id="Path_28977" data-name="Path 28977" d="M9.5,17a7.5,7.5,0,1,1,0-15Z" transform="translate(-0.75 -0.75)" fill="#da1e27"/>
  <path id="Path_28978" data-name="Path 28978" d="M17.826,4.072a6.268,6.268,0,0,1,2.026,1.355l.883-.883A7.522,7.522,0,0,0,18.3,2.917Z" transform="translate(-6.685 -1.094)" fill="#da1e27"/>
  <path id="Path_28979" data-name="Path 28979" d="M24.964,12.278a7.456,7.456,0,0,0-.573-2.869l-1.155.478a6.214,6.214,0,0,1,.477,2.391Z" transform="translate(-8.714 -3.528)" fill="#da1e27"/>
  <rect id="_Transparent_Rectangle_" data-name="&lt;Transparent Rectangle&gt;" width="20" height="20" fill="none"/>
</svg>
