<svg xmlns="http://www.w3.org/2000/svg" width="20" height="20" viewBox="0 0 20 20">
  <g id="Group_53921" data-name="Group 53921" transform="translate(-80 -472)">
    <rect id="Rectangle_15112" data-name="Rectangle 15112" width="20" height="20" transform="translate(80 472)" fill="#fff" opacity="0"/>
    <g id="Group" transform="translate(79.6 455.5)">
      <path id="Path" d="M13.572,41.844a.322.322,0,1,0,0-.644H9.822a.322.322,0,0,0,0,.644Z" transform="translate(-5.118 -15.69)" fill="#ffffff"/>
      <path id="Compound_Path" data-name="Compound Path" d="M3.4,27.328a.322.322,0,0,0,.322.322H5.315V29.2a.966.966,0,0,0,.966.966H6.41a1.5,1.5,0,0,0,1.465,1.191,1.481,1.481,0,0,0,1.448-1.191h5.054a1.5,1.5,0,0,0,1.465,1.191,1.481,1.481,0,0,0,1.448-1.191H17.6a.8.8,0,0,0,.8-.8V27.087a.821.821,0,0,0-.724-.8l-.8-1.465a1.3,1.3,0,0,0-1.127-.66H13.829v-.692a.966.966,0,0,0-.966-.966H6.281a.966.966,0,0,0-.966.966v.563H3.722a.322.322,0,1,0,0,.644h3.75a.322.322,0,0,0,0-.644H5.959v-.563a.322.322,0,0,1,.322-.322h6.583a.322.322,0,0,1,.322.322v6.052H9.307a1.481,1.481,0,0,0-2.881,0H6.281a.322.322,0,0,1-.322-.322V27.65H7.472a.322.322,0,1,0,0-.644H3.722A.322.322,0,0,0,3.4,27.328Zm12.441,3.38a.853.853,0,1,1,.837-.837.837.837,0,0,1-.837.837Zm-.1-5.907a.644.644,0,0,1,.563.338l.628,1.143H13.829V24.8Zm-1.915,2.124H17.6a.145.145,0,0,1,.161.161v2.269a.161.161,0,0,1-.161.161h-.322a1.481,1.481,0,0,0-1.432-1.143,1.5,1.5,0,0,0-1.448,1.143h-.563ZM7.874,29.018a.853.853,0,1,1-.853.853.853.853,0,0,1,.853-.853Z" transform="translate(0)" fill="#ffffff"/>
    </g>
  </g>
</svg>
