<svg xmlns="http://www.w3.org/2000/svg" width="20" height="20" viewBox="0 0 20 20">
  <g id="Group_53914" data-name="Group 53914" transform="translate(-80 -276)">
    <rect id="Rectangle_15108" data-name="Rectangle 15108" width="20" height="20" transform="translate(80 276)" fill="#fff" opacity="0"/>
    <g id="noun_waste_management_4281869" data-name="noun_waste management_4281869" transform="translate(77.852 274.61)">
      <path id="Path_28618" data-name="Path 28618" d="M20.141,9.382a7.752,7.752,0,0,0-2.105-3.57.207.207,0,0,0-.229-.04l-1.244.55a6.324,6.324,0,0,0-1.535-.883l-.156-1.348a.209.209,0,0,0-.152-.177,7.859,7.859,0,0,0-4.145,0,.209.209,0,0,0-.152.177l-.156,1.348a6.366,6.366,0,0,0-1.537.883l-1.242-.55a.211.211,0,0,0-.231.04,7.786,7.786,0,0,0-2.1,3.57A.211.211,0,0,0,5.23,9.6l1.092.826a6.113,6.113,0,0,0-.072.948,6.623,6.623,0,0,0,.074.967L5.23,13.18a.211.211,0,0,0-.075.216,7.786,7.786,0,0,0,2.1,3.57.211.211,0,0,0,.231.04l1.261-.557a6.284,6.284,0,0,0,1.517.866l.157,1.371a.212.212,0,0,0,.152.177,7.792,7.792,0,0,0,4.147,0,.212.212,0,0,0,.152-.177l.157-1.371a6.354,6.354,0,0,0,1.517-.866l1.261.557a.211.211,0,0,0,.231-.04,7.786,7.786,0,0,0,2.1-3.57.211.211,0,0,0-.075-.221l-1.094-.836a6.75,6.75,0,0,0,.072-.967,6.229,6.229,0,0,0-.07-.948L20.066,9.6A.211.211,0,0,0,20.141,9.382Zm-1.52.789a.211.211,0,0,0-.08.2,5.719,5.719,0,0,1,.085,1,6.068,6.068,0,0,1-.087,1.023.207.207,0,0,0,.08.2l1.08.818a7.358,7.358,0,0,1-1.853,3.154l-1.246-.55a.206.206,0,0,0-.216.028,5.915,5.915,0,0,1-1.622.926.209.209,0,0,0-.132.167L14.474,18.5a7.458,7.458,0,0,1-3.652,0l-.157-1.354a.209.209,0,0,0-.132-.167,5.866,5.866,0,0,1-1.622-.926.209.209,0,0,0-.216-.028l-1.246.55A7.358,7.358,0,0,1,5.6,13.421l1.08-.818a.207.207,0,0,0,.08-.2,6.187,6.187,0,0,1-.089-1.023,5.669,5.669,0,0,1,.087-1,.211.211,0,0,0-.08-.2L5.6,9.357A7.358,7.358,0,0,1,7.449,6.205l1.227.543a.214.214,0,0,0,.217-.028,5.921,5.921,0,0,1,1.64-.943.212.212,0,0,0,.134-.167l.154-1.338a7.451,7.451,0,0,1,3.65,0l.154,1.338a.212.212,0,0,0,.134.167,5.97,5.97,0,0,1,1.64.943.214.214,0,0,0,.217.028l1.227-.543A7.322,7.322,0,0,1,19.7,9.357Z" transform="translate(0 0)" fill="#525252" stroke="#525252" stroke-width="0.2"/>
      <path id="Path_28619" data-name="Path 28619" d="M33.085,21.731a.15.15,0,0,0,.12-.078l.848-1.535a.15.15,0,0,0-.207-.2l-.467.274-.4-.68a.675.675,0,0,0-.56-.31c-.253,0-1.521-.02-2.03-.029a.769.769,0,0,0-.091,0h-.12a.934.934,0,0,0-.76.425l-.013.019-.758,1.336a.154.154,0,0,0-.013.12.151.151,0,0,0,.072.091l1.572.866a.156.156,0,0,0,.072.018.149.149,0,0,0,.131-.076l.81-1.441.419.694-.561.318a.15.15,0,0,0,.082.28Zm-2.794-.042-1.309-.721.681-1.2c.259-.32.481-.305.489-.3h.216a.635.635,0,0,1,.454.3l.288.462Zm1.122-1.535h0l-.332-.532a.9.9,0,0,0-.1-.139c.568.01,1.257.019,1.442.019a.371.371,0,0,1,.3.162l.48.807a.151.151,0,0,0,.205.054l.131-.076-.553.981-1.141.058.145-.083a.153.153,0,0,0,.071-.092.155.155,0,0,0-.017-.12Z" transform="translate(-18.549 -11.482)" fill="#525252" stroke="#525252" stroke-width="0.2"/>
      <path id="Path_28620" data-name="Path 28620" d="M53.537,38.588l-.778-1.331a.147.147,0,0,0-.092-.07.153.153,0,0,0-.114.017l-1.539.926a.149.149,0,0,0-.052.2l.77,1.308a.148.148,0,0,0-.07.12l-.674.012.006-.645a.151.151,0,0,0-.285-.071l-.852,1.647a.148.148,0,0,0,0,.147l.9,1.5a.149.149,0,0,0,.129.073.152.152,0,0,0,.041,0,.15.15,0,0,0,.109-.145v-.549h.788a.678.678,0,0,0,.554-.335c.127-.22.781-1.306,1.044-1.743.017-.024.032-.05.048-.078.03-.052.052-.086.059-.1a.916.916,0,0,0,.014-.871Zm-1.415,2.657a.37.37,0,0,1-.291.179l-.937.007a.149.149,0,0,0-.149.15v.156l-.581-.973.524-1.015v.167a.149.149,0,0,0,.044.107.165.165,0,0,0,.108.044l1.223-.022h0l.627-.019a.9.9,0,0,0,.171-.014ZM53.29,39.3l-.01.014-.1.173a.632.632,0,0,1-.488.24l-.548.02L51.3,38.307l1.281-.771.7,1.19a.654.654,0,0,1,.014.579Z" transform="translate(-37.213 -27.333)" fill="#525252" stroke="#525252" stroke-width="0.2"/>
      <path id="Path_28621" data-name="Path 28621" d="M21.85,41.339H20.2l.4-.706.554.33a.15.15,0,0,0,.2-.209l-1-1.564a.151.151,0,0,0-.127-.07h0l-1.755.019a.15.15,0,0,0-.074.28l.471.275-.394.684a.679.679,0,0,0,.007.639c.153.269,1.017,1.857,1.081,1.964a.922.922,0,0,0,.744.452h1.562a.15.15,0,0,0,.15-.153L22,41.484A.15.15,0,0,0,21.85,41.339Zm-2.348.9c-.282-.515-.656-1.2-.753-1.372a.377.377,0,0,1-.008-.342l.467-.812a.15.15,0,0,0-.054-.2l-.131-.077,1.129-.012.613.961L20.62,40.3a.149.149,0,0,0-.12-.016.153.153,0,0,0-.092.071l-.6,1.067h0A3.038,3.038,0,0,0,19.5,42.241Zm.841.893c-.406-.067-.5-.269-.506-.275l-.007-.016c-.177-.324.059-.918.2-1.2H21.7l.018,1.5Z" transform="translate(-9.49 -29.037)" fill="#525252" stroke="#525252" stroke-width="0.2"/>
    </g>
  </g>
</svg>
