<svg xmlns="http://www.w3.org/2000/svg" width="20" height="20" viewBox="0 0 20 20">
  <g id="Group_53919" data-name="Group 53919" transform="translate(-80 -381)">
    <rect id="Rectangle_15110" data-name="Rectangle 15110" width="20" height="20" transform="translate(80 381)" fill="#fff" opacity="0"/>
    <g id="Group_53902" data-name="Group 53902" transform="translate(-205.588 -28.115)">
      <path id="Path_28677" data-name="Path 28677" d="M298.212,422.146a.261.261,0,0,0-.185-.077h-1.209a.753.753,0,0,0-.148-.252l.608-1.074a.254.254,0,0,0,.025-.205.258.258,0,0,0-.126-.154,2.667,2.667,0,0,0-.553-.22,2.141,2.141,0,0,0-.541-.069h-.014a2.117,2.117,0,0,0-.548.075,2.525,2.525,0,0,0-.533.22.264.264,0,0,0-.116.148.252.252,0,0,0,.023.2l.61,1.078a.762.762,0,0,0-.148.252h-1.21a.252.252,0,0,0-.255.267,2.71,2.71,0,0,0,.089.6,2.265,2.265,0,0,0,.215.521,2.119,2.119,0,0,0,.338.444,2.306,2.306,0,0,0,.443.353.152.152,0,0,0,.123.041l.041.006.036-.008a.253.253,0,0,0,.163-.123l.61-1.075a.841.841,0,0,0,.274,0l.606,1.07a.254.254,0,0,0,.176.129l.048,0a.253.253,0,0,0,.14-.041,2.679,2.679,0,0,0,.462-.378,2.273,2.273,0,0,0,.337-.452,2.143,2.143,0,0,0,.211-.519,2.611,2.611,0,0,0,.08-.571A.256.256,0,0,0,298.212,422.146Zm-2.71.693-.469.828a1.737,1.737,0,0,1-.609-1.083h.93A.769.769,0,0,0,295.5,422.839Zm.583-1.284a.863.863,0,0,0-.134.011l-.476-.84a1.632,1.632,0,0,1,1.221,0l-.475.84A.889.889,0,0,0,296.085,421.555Zm.262.773a.261.261,0,1,1-.261-.262A.262.262,0,0,1,296.347,422.328Zm1.4.254a1.74,1.74,0,0,1-.609,1.08l-.469-.827a.75.75,0,0,0,.147-.253Z" fill="#525252"/>
      <path id="Path_28678" data-name="Path 28678" d="M302.255,414.2h-9.2v-2.214h-2.821V414.2h-.315a1.339,1.339,0,0,0-1.332,1.332v10.115a.593.593,0,0,0,.592.592h13.815a.588.588,0,0,0,.593-.592V415.534A1.334,1.334,0,0,0,302.255,414.2Zm-11.329-1.523h1.439V414.2h-1.439ZM301.17,425.55H291.005v-6.562a.152.152,0,0,1,.148-.148h9.869a.145.145,0,0,1,.148.148Zm1.727,0h-1.036v-6.562a.838.838,0,0,0-.839-.839h-9.869a.844.844,0,0,0-.838.839v6.562h-1.037v-8.93H302.9Zm0-9.621H289.278v-.395a.646.646,0,0,1,.642-.641h12.335a.64.64,0,0,1,.642.641Z" fill="#525252"/>
    </g>
  </g>
</svg>
