<svg xmlns="http://www.w3.org/2000/svg" xmlns:xlink="http://www.w3.org/1999/xlink" width="20" height="20" viewBox="0 0 20 20">
  <defs>
    <clipPath id="clip-path">
      <rect id="Rectangle_15148" data-name="Rectangle 15148" width="20" height="20" transform="translate(-5462 -14655)" fill="#fff"/>
    </clipPath>
  </defs>
  <g id="Mask_Group_20" data-name="Mask Group 20" transform="translate(5462 14655)" clip-path="url(#clip-path)">
    <g id="noun_order_processing_1847068" data-name="noun_order processing_1847068" transform="translate(-5459.019 -14654.696)">
      <g id="Group_53926" data-name="Group 53926" transform="translate(0 3)">
        <path id="Path_37977" data-name="Path 37977" d="M13.954,8.64,12.645,6.165a.334.334,0,0,0-.108-.108c-.082-.047-.077-.024-3.038-.745V5.284A1.488,1.488,0,0,1,10.984,3.8H12.7l-.471.446a.275.275,0,1,0,.378.4l.972-.921,0,0a.274.274,0,0,0,0-.394l0,0L12.606,2.4a.275.275,0,1,0-.378.4l.471.446H10.984A2.037,2.037,0,0,0,8.953,5.181L7.437,4.816V1.305l.447.471a.275.275,0,0,0,.4-.378L7.362.426l0,0a.272.272,0,0,0-.394,0l0,0L6.041,1.4a.275.275,0,1,0,.4.378l.446-.471V4.816L5.376,5.18v-.03A2.038,2.038,0,0,0,3.339,3.113H1.625L2.1,2.667a.275.275,0,1,0-.378-.4l-.972.921,0,0a.273.273,0,0,0,0,.394l0,0,.972.921a.275.275,0,1,0,.378-.4l-.471-.446H3.339A1.488,1.488,0,0,1,4.825,5.149v.163l-2.967.714a.314.314,0,0,0-.178.139L.371,8.639A.72.72,0,0,0,.838,9.676l.811.2v2.3a.713.713,0,0,0,.552.7l4.348,1.048.008,0a2.768,2.768,0,0,0,1.218,0l4.349-1.048a.714.714,0,0,0,.554-.7v-2.3l.809-.2a.718.718,0,0,0,.468-1.034ZM5.1,6.435a.275.275,0,0,0,.275-.275V5.745l1.511-.364v.913a.275.275,0,0,0,.55,0V5.381l1.511.364v.549a.275.275,0,1,0,.55,0V5.878l1.727.416-4.064.979L4.437,6.616,3.1,6.294l1.727-.416v.282A.275.275,0,0,0,5.1,6.435ZM.857,8.9l1.21-2.285L6.753,7.741,5.5,10.1a.168.168,0,0,1-.189.085L.967,9.141A.17.17,0,0,1,.857,8.9Zm5.82,4.484-4.35-1.049a.167.167,0,0,1-.128-.164V10l2.986.719a.719.719,0,0,0,.8-.363l.9-1.692v4.549a.953.953,0,0,0,.03.205A1.65,1.65,0,0,1,6.677,13.38Zm5.45-1.212a.167.167,0,0,1-.131.164L7.635,13.383a.173.173,0,0,1-.2-.167V8.659l.9,1.7a.735.735,0,0,0,.282.288.714.714,0,0,0,.521.074L12.127,10v2.166Zm1.232-3.029L9.01,10.187a.167.167,0,0,1-.188-.084L7.572,7.741l4.687-1.129L13.468,8.9A.168.168,0,0,1,13.359,9.139Z" fill="#525252"/>
      </g>
    </g>
  </g>
</svg>
