<svg xmlns="http://www.w3.org/2000/svg" width="20" height="20" viewBox="0 0 20 20">
  <g id="Group_53908" data-name="Group 53908" transform="translate(-80 -164)">
    <rect id="Rectangle_15104" data-name="Rectangle 15104" width="20" height="20" transform="translate(80 164)" fill="#fff" opacity="0"/>
    <g id="noun_fas_2201594" transform="translate(82.471 -122.548)">
      <path id="Path_28658" data-name="Path 28658" d="M12.85,294.15a4.78,4.78,0,0,0-2.679,1.363,4.511,4.511,0,0,0,.912,2.635,10.959,10.959,0,0,1-1.448-.124v-2.39a1.071,1.071,0,0,0-1.071-1.071H3.207a1.071,1.071,0,0,0-1.071,1.071v2.679a5.339,5.339,0,0,1-1.279-.136.268.268,0,0,0-.12.522,5.866,5.866,0,0,0,3.283-.189,7.48,7.48,0,0,1,4.382-.193,11.508,11.508,0,0,0,3.736.336,26.852,26.852,0,0,1,3.111-.049.268.268,0,1,0,.023-.536q-.292-.012-.585-.018a4.511,4.511,0,0,0,.841-2.537,4.78,4.78,0,0,0-2.679-1.363Zm-.268.6v3.342q-.242.014-.483.031-.162.012-.323.018a3.975,3.975,0,0,1-1.057-2.408,4.242,4.242,0,0,1,1.864-.984Zm.536,0a4.244,4.244,0,0,1,1.865.984,3.975,3.975,0,0,1-.973,2.313q-.446,0-.891.018Zm-9.911.352H8.564a.536.536,0,0,1,.536.536v2.294q-.269-.054-.536-.122v-2.171H3.207v2.552h0a5.354,5.354,0,0,1-.536.09v-2.643a.536.536,0,0,1,.536-.536Zm.536,1.071H8.029v1.514a8.014,8.014,0,0,0-4.188.321l-.1.033Z" transform="translate(0 3.992)" fill="#525252"/>
      <path id="Path_28659" data-name="Path 28659" d="M5.183,292.954,2.441,294.69a.536.536,0,0,0-.633.849l1.084,1.113A2.7,2.7,0,0,0,2.1,298.02h.554a2.166,2.166,0,0,1,4.157,0h.554a2.7,2.7,0,0,0-.751-1.329L11,293.135l1.3,2.2a.535.535,0,0,0,.193.191v.752a.268.268,0,0,0,.268.268.14.14,0,1,1-.14.14h-.536a.676.676,0,1,0,.944-.62v-.54a.536.536,0,0,0,.267-.5l-.311-4.521a.268.268,0,0,0-.267-.25h-3.2C9.468,290.255,6.484,292.2,5.183,292.954Zm4.942-2.164h1.992l-.851.941a.58.58,0,0,0-.291,0Zm-.651.08,1.04,1.15-5.356,3.942a2.7,2.7,0,0,0-1.325.12l-.987-1.015Zm3.022.3.186,2.7-.989-1.668a.578.578,0,0,0-.029-.115Zm-1.381,1.079a.043.043,0,0,1,.033.075L6.182,296.35a2.693,2.693,0,0,0-.377-.2l5.29-3.9a.045.045,0,0,1,.019-.008Z" transform="translate(1.154 0)" fill="#525252"/>
      <path id="Path_28661" data-name="Path 28661" d="M2.913,294.361a.268.268,0,0,1,0-.536H4.521a.268.268,0,0,1,0,.536Z" transform="translate(2.169 3.659)" fill="#525252"/>
    </g>
  </g>
</svg>
