<svg xmlns="http://www.w3.org/2000/svg" width="20" height="20" viewBox="0 0 20 20">
  <g id="Group_53923" data-name="Group 53923" transform="translate(-80 -433)">
    <rect id="Rectangle_15111" data-name="Rectangle 15111" width="20" height="20" transform="translate(80 433)" fill="#fff" opacity="0"/>
    <g id="Group_53903" data-name="Group 53903" transform="translate(-213.545 2.287)">
      <path id="Path_28679" data-name="Path 28679" d="M311.381,443.013a.645.645,0,0,0-.473-.2h-1.64v-2.951a.663.663,0,0,0-.655-.655h-3.381v-3.032a.81.81,0,0,0-.8-.8h-1.157a.9.9,0,0,0-.851-.594h-.615v-.144a.923.923,0,0,0-.922-.922.913.913,0,0,0-.923.922v.144h-.615a.9.9,0,0,0-.85.594h-1.158a.81.81,0,0,0-.8.8v9.958a.81.81,0,0,0,.8.8h4.424a.647.647,0,0,0,.636.471h3.914a.609.609,0,0,0,.334-.094.661.661,0,0,0,.321.094h3.915a.664.664,0,0,0,.655-.655v-3.269A.608.608,0,0,0,311.381,443.013Zm-4.386.453h.984v1.311a.315.315,0,0,0,.178.287.244.244,0,0,0,.149.04.406.406,0,0,0,.2-.067l.457-.352.465.356a.3.3,0,0,0,.34.022.342.342,0,0,0,.178-.286v-1.311h.984v3.155h-.021v.123H307Zm2.273.657-.153-.113a.382.382,0,0,0-.174-.052.427.427,0,0,0-.2.065l-.131.1v-.655h.655Zm-2.611-1.264a.18.18,0,0,0-.072-.027l-.008-.02h-.051a.2.2,0,0,0-.105-.024h-1.742v-2.951h.984v1.311a.332.332,0,0,0,.526.262l.457-.352.479.365a.4.4,0,0,0,.177.053.2.2,0,0,0,.151-.041.34.34,0,0,0,.177-.286v-1.311l.983,0v2.954h-1.763c-.038,0-.068.015-.061.021a.151.151,0,0,0-.1.031.36.36,0,0,0-.033.016Zm-4.907.749v.287h-2.5a.144.144,0,1,1,0-.287Zm-3.3.1a.81.81,0,0,0,.8.8h2.5v1.72h-4.385l-.034,0a.07.07,0,0,1-.065-.011.123.123,0,0,1-.044-.1v-9.958a.15.15,0,0,1,.144-.145h1.13a.15.15,0,0,0,.038.073l.046.09.014.1h.058a.282.282,0,0,0,.073.058l.03.031a.44.44,0,0,0,.1.074.152.152,0,0,0,.074.038.046.046,0,0,0,.033.007l.035.038h.027a.219.219,0,0,0,.118.039l.022.022h.051a.34.34,0,0,1,.047.008.51.51,0,0,0,.1.013h3.074a.491.491,0,0,0,.172-.023.129.129,0,0,0,.066-.025.447.447,0,0,0,.048-.015.2.2,0,0,0,.122-.047.238.238,0,0,0,.054-.024l.023-.011.055-.038a.191.191,0,0,1,.047-.036l.074-.063a.723.723,0,0,0,.075-.088h.018l.094-.19.031-.028v-.029h1.128a.147.147,0,0,1,.144.143v3.022a.665.665,0,0,0-.553.647v2.95h-1.64a.4.4,0,0,0-.153.023.133.133,0,0,0-.068.03l-.025.009a.143.143,0,0,0-.072.02h-.018l-.036.035a.313.313,0,0,0-.046.029H299.25A.81.81,0,0,0,298.451,443.712Zm2.724-9.077v.471a.318.318,0,0,0,.329.329h.942a.266.266,0,0,1,0,.532h-3.074a.266.266,0,1,1,0-.532h.943a.318.318,0,0,0,.328-.329v-.471a.267.267,0,0,1,.266-.267A.255.255,0,0,1,301.176,434.635Zm3.524,9.487-.131-.1a.311.311,0,0,0-.393,0l-.131.1v-.655h.655Zm-2.295-.635h.984V444.8a.317.317,0,0,0,.178.287.248.248,0,0,0,.15.04.414.414,0,0,0,.2-.066l.457-.351.466.357a.3.3,0,0,0,.339.019.34.34,0,0,0,.178-.286v-1.311h.984l-.006,3.259h-3.928ZM307,440.5l-.148-.109a.381.381,0,0,0-.18-.056.414.414,0,0,0-.2.07l-.127.1v-.643H307Z" fill="#525252"/>
      <path id="Path_28680" data-name="Path 28680" d="M299.282,439.414h3.3a.8.8,0,1,0,0-1.6h-3.3a.8.8,0,0,0,0,1.6Zm-.144-.8a.15.15,0,0,1,.144-.144h3.3a.143.143,0,1,1,0,.286h-3.3A.149.149,0,0,1,299.138,438.616Z" transform="translate(-0.032 -0.067)" fill="#525252"/>
      <path id="Path_28681" data-name="Path 28681" d="M302.581,442.06a.8.8,0,1,0,0-1.6h-3.3a.8.8,0,0,0,0,1.6Zm-3.443-.8a.149.149,0,0,1,.144-.143h3.3a.143.143,0,1,1,0,.286h-3.3A.149.149,0,0,1,299.138,441.261Z" transform="translate(-0.032 -0.111)" fill="#525252"/>
    </g>
  </g>
</svg>
