<svg xmlns="http://www.w3.org/2000/svg" width="20" height="20" viewBox="0 0 20 20">
  <g id="Group_53913" data-name="Group 53913" transform="translate(-80 -248)">
    <rect id="Rectangle_15107" data-name="Rectangle 15107" width="20" height="20" transform="translate(80 248)" fill="#fff" opacity="0"/>
    <g id="noun_schedule_4335291" transform="translate(76 244)">
      <path id="Path_28542" data-name="Path 28542" d="M25.1,23.4H23.3a.3.3,0,0,1-.3-.3V21.3a.3.3,0,0,1,.3-.3h1.8a.3.3,0,0,1,.3.3v1.8A.3.3,0,0,1,25.1,23.4Zm-1.5-.6h1.2V21.6H23.6Z" transform="translate(-11.2 -9.8)" fill="#525252"/>
      <path id="Path_28543" data-name="Path 28543" d="M21.1,7H7.9a.9.9,0,0,0-.9.9V21.1a.9.9,0,0,0,.9.9H21.1a.9.9,0,0,0,.9-.9V7.9A.9.9,0,0,0,21.1,7ZM19.6,17.5a.3.3,0,0,0-.3.3v2.4H8.5a.9.9,0,0,1-.9-.9V10.6H21.4v6.9Zm1.487.6L19.9,19.625V18.1ZM7.9,7.6H21.1a.3.3,0,0,1,.3.3V10H7.6V7.9A.3.3,0,0,1,7.9,7.6ZM21.1,21.4H7.9a.3.3,0,0,1-.3-.3v-.608a1.484,1.484,0,0,0,.9.308H19.6a.3.3,0,0,0,.237-.116l1.563-2.01V21.1A.3.3,0,0,1,21.1,21.4Z" transform="translate(0 0)" fill="#525252"/>
      <path id="Path_28547" data-name="Path 28547" d="M35.1,23.4H33.3a.3.3,0,0,1-.3-.3V21.3a.3.3,0,0,1,.3-.3h1.8a.3.3,0,0,1,.3.3v1.8A.3.3,0,0,1,35.1,23.4Zm-1.5-.6h1.2V21.6H33.6Z" transform="translate(-18.2 -9.8)" fill="#525252"/>
      <path id="Path_28548" data-name="Path 28548" d="M25.1,33.4H23.3a.3.3,0,0,1-.3-.3V31.3a.3.3,0,0,1,.3-.3h1.8a.3.3,0,0,1,.3.3v1.8A.3.3,0,0,1,25.1,33.4Zm-1.5-.6h1.2V31.6H23.6Z" transform="translate(-11.2 -16.8)" fill="#525252"/>
      <path id="Path_28549" data-name="Path 28549" d="M15.1,33.4H13.3a.3.3,0,0,1-.3-.3V31.3a.3.3,0,0,1,.3-.3h1.8a.3.3,0,0,1,.3.3v1.8A.3.3,0,0,1,15.1,33.4Zm-1.5-.6h1.2V31.6H13.6Z" transform="translate(-4.2 -16.8)" fill="#525252"/>
      <path id="Path_28550" data-name="Path 28550" d="M45.1,33.4H43.3a.3.3,0,0,1-.3-.3V31.3a.3.3,0,0,1,.3-.3h1.8a.3.3,0,0,1,.3.3v1.8A.3.3,0,0,1,45.1,33.4Zm-1.5-.6h1.2V31.6H43.6Z" transform="translate(-25.2 -16.8)" fill="#525252"/>
      <path id="Path_28551" data-name="Path 28551" d="M35.1,33.4H33.3a.3.3,0,0,1-.3-.3V31.3a.3.3,0,0,1,.3-.3h1.8a.3.3,0,0,1,.3.3v1.8A.3.3,0,0,1,35.1,33.4Zm-1.5-.6h1.2V31.6H33.6Z" transform="translate(-18.2 -16.8)" fill="#525252"/>
      <path id="Path_28552" data-name="Path 28552" d="M25.1,43.4H23.3a.3.3,0,0,1-.3-.3V41.3a.3.3,0,0,1,.3-.3h1.8a.3.3,0,0,1,.3.3v1.8A.3.3,0,0,1,25.1,43.4Zm-1.5-.6h1.2V41.6H23.6Z" transform="translate(-11.2 -23.8)" fill="#525252"/>
      <path id="Path_28553" data-name="Path 28553" d="M35.1,43.4H33.3a.3.3,0,0,1-.3-.3V41.3a.3.3,0,0,1,.3-.3h1.8a.3.3,0,0,1,.3.3v1.8A.3.3,0,0,1,35.1,43.4Zm-1.5-.6h1.2V41.6H33.6Z" transform="translate(-24.2 -29.799)" fill="#525252"/>
      <path id="Path_28554" data-name="Path 28554" d="M44.9,23.1a.3.3,0,0,1-.212-.088l-.6-.6a.3.3,0,1,1,.424-.424l.328.328.7-1.17a.3.3,0,1,1,.514.309l-.9,1.5a.3.3,0,0,1-.221.143H44.9Z" transform="translate(-25.9 -9.801)" fill="#525252"/>
      <path id="Path_28555" data-name="Path 28555" d="M15.324,42.9l.388-.388a.3.3,0,1,0-.424-.424l-.388.388-.388-.388a.3.3,0,1,0-.424.424l.388.388-.388.388a.3.3,0,1,0,.424.424l.388-.388.388.388a.3.3,0,1,0,.424-.424Z" transform="translate(-4.9 -24.5)" fill="#525252"/>
    </g>
  </g>
</svg>
