<svg xmlns="http://www.w3.org/2000/svg" width="20" height="20" viewBox="0 0 20 20">
  <g id="Group_53911" data-name="Group 53911" transform="translate(-80 -220)">
    <rect id="Rectangle_15106" data-name="Rectangle 15106" width="20" height="20" transform="translate(80 220)" fill="#fff" opacity="0"/>
    <g id="noun_Radioactive_Waste_3111889" data-name="noun_Radioactive Waste_3111889" transform="translate(75 219)">
      <path id="Path_28556" data-name="Path 28556" d="M21.438,3.986H20.349l.564-1.2a.523.523,0,0,0-.053-.536A.644.644,0,0,0,20.339,2h-.57a.628.628,0,0,0-.574.344l-.775,1.642H17.063V3.419a.9.9,0,0,0-.937-.851H11.75a.9.9,0,0,0-.937.851v.567H9.562A1.5,1.5,0,0,0,8,5.4v.284a.9.9,0,0,0,.937.851H9.25v6.815a2.859,2.859,0,0,0,.259,1.188L11.3,18.5a.94.94,0,0,0,.867.527h3.883a.946.946,0,0,0,.838-.47l.377-.684a2.216,2.216,0,0,0,2.051,1.154,2.186,2.186,0,0,0,1.971-1.263,1.856,1.856,0,0,0-.51-2.141h.035a.9.9,0,0,0,.937-.851V6.54h.313A.9.9,0,0,0,23,5.688V5.4A1.5,1.5,0,0,0,21.438,3.986ZM19.769,2.567h.57l-.67,1.419H19.1Zm-8.331.851a.3.3,0,0,1,.312-.284h4.375a.3.3,0,0,1,.313.284v.567h-5Zm9.375,13.619a1.57,1.57,0,1,1-1.563-1.419A1.5,1.5,0,0,1,20.813,17.037Zm.312-2.27a.3.3,0,0,1-.312.284H19.25a2.1,2.1,0,0,0-2.183,1.911L16.331,18.3a.315.315,0,0,1-.279.157H12.169a.313.313,0,0,1-.289-.176l-1.793-3.953a2.338,2.338,0,0,1-.212-.972V6.54h11.25Zm1.25-9.079a.3.3,0,0,1-.312.284H8.937a.3.3,0,0,1-.312-.284V5.4a.9.9,0,0,1,.937-.851H21.438a.9.9,0,0,1,.938.851Z" transform="translate(0 0)" fill="#525252"/>
      <path id="Path_28557" data-name="Path 28557" d="M22.814,27.4v0a1.584,1.584,0,0,0,.3,2.056l.442-.4a1.044,1.044,0,0,1-.291-1.18,2.017,2.017,0,0,0,2.349,0,1.044,1.044,0,0,1-.291,1.18l.442.4a1.584,1.584,0,0,0,.3-2.055v0a1.789,1.789,0,0,0,1.814-1.7H27.25a1.163,1.163,0,0,1-.96,1.1,1.674,1.674,0,0,0-1.221-1.851A1.3,1.3,0,0,1,26,24.567V24a1.93,1.93,0,0,0-1.562.763A1.93,1.93,0,0,0,22.875,24v.567a1.3,1.3,0,0,1,.931.385A1.674,1.674,0,0,0,22.585,26.8a1.163,1.163,0,0,1-.96-1.1H21A1.789,1.789,0,0,0,22.814,27.4Zm.8,0a1.342,1.342,0,0,1,1.637,0A1.321,1.321,0,0,1,23.619,27.4Zm2.068-.851a1.034,1.034,0,0,1-.028.236,1.123,1.123,0,0,1-.882-1.322,1.156,1.156,0,0,1,.91,1.087ZM24.1,25.467a1.123,1.123,0,0,1-.882,1.322,1.123,1.123,0,0,1,.882-1.322Z" transform="translate(-8.937 -15.758)" fill="#525252"/>
      <ellipse id="Ellipse_5130" data-name="Ellipse 5130" cy="0.532" ry="0.532" transform="translate(19.718 16.896)" fill="#525252"/>
    </g>
  </g>
</svg>
